<svg viewBox="0 0 64 64" xmlns="http://www.w3.org/2000/svg">
  <g fill="#0BFAF2">
    <path d="M32 0C14.3 0 0 14.3 0 32s14.3 32 32 32 32-14.3 32-32S49.7 0 32 0zm0 58.7C17.1 58.7 5.3 46.9 5.3 32S17.1 5.3 32 5.3 58.7 17.1 58.7 32 46.9 58.7 32 58.7z"/>
    <path d="M32 0C14.3 0 0 14.3 0 32s14.3 32 32 32 32-14.3 32-32S49.7 0 32 0zm0 58.7C17.1 58.7 5.3 46.9 5.3 32S17.1 5.3 32 5.3 58.7 17.1 58.7 32 46.9 58.7 32 58.7z"/>
  </g>
  <g fill="#E3FF2D">
    <path d="M32 16c-8.8 0-16 7.2-16 16s7.2 16 16 16 16-7.2 16-16-7.2-16-16-16zm0 28.8c-7 0-12.8-5.8-12.8-12.8S25 19.2 32 19.2 44.8 25 44.8 32 39 44.8 32 44.8z"/>
    <path d="M32 16c-8.8 0-16 7.2-16 16s7.2 16 16 16 16-7.2 16-16-7.2-16-16-16zm0 28.8c-7 0-12.8-5.8-12.8-12.8S25 19.2 32 19.2 44.8 25 44.8 32 39 44.8 32 44.8z"/>
  </g>
</svg>


