<?xml version="1.0" standalone="no"?>
<!DOCTYPE svg PUBLIC "-//W3C//DTD SVG 20010904//EN"
 "http://www.w3.org/TR/2001/REC-SVG-20010904/DTD/svg10.dtd">
<svg version="1.0" xmlns="http://www.w3.org/2000/svg"
 width="474.000000pt" height="474.000000pt" viewBox="0 0 474.000000 474.000000"
 preserveAspectRatio="xMidYMid meet">
<metadata>
Created by potrace 1.16, written by Peter Selinger 2001-2019
</metadata>
<g transform="translate(0.000000,474.000000) scale(0.100000,-0.100000)"
fill="#00BFFF" stroke="none"> <!-- Cambié el color a blanco -->
<path d="M3145 4575 c-97 -13 -200 -35 -280 -59 -45 -14 -59 -14 -140 1 -130
24 -395 24 -498 0 -86 -21 -185 -59 -263 -102 l-51 -29 -84 27 c-250 79 -439
111 -669 110 -158 0 -185 -2 -285 -28 -67 -17 -147 -46 -205 -75 -83 -42 -105
-59 -175 -136 -149 -163 -238 -351 -265 -559 -18 -141 -14 -216 20 -442 94
-625 268 -1204 483 -1603 71 -131 162 -232 263 -291 54 -31 66 -34 134 -33 80
2 141 23 192 66 14 13 63 68 109 123 104 125 309 355 317 355 3 0 33 -11 67
-25 34 -13 89 -28 123 -32 l62 -8 -44 -55 c-57 -72 -96 -92 -244 -129 -181
-44 -242 -88 -242 -176 0 -61 117 -143 250 -176 77 -19 240 -15 320 6 72 20
169 65 216 101 17 13 33 24 35 24 2 0 5 -105 5 -233 1 -231 18 -441 50 -617
42 -230 186 -383 399 -424 97 -18 171 -11 325 32 88 24 118 37 186 86 113 79
185 184 220 317 27 103 70 387 105 684 12 105 27 195 33 202 8 9 28 9 84 1 95
-15 288 3 408 38 143 41 276 120 357 211 46 50 61 126 34 167 -29 44 -74 51
-210 30 -145 -23 -357 -25 -403 -6 l-32 13 83 137 c333 551 555 1221 555 1676
0 110 -4 146 -26 226 -14 52 -34 109 -44 125 -11 17 -63 73 -117 127 -198 194
-436 312 -708 348 -157 22 -316 23 -450 5z m410 -140 c94 -11 159 -25 235 -52
130 -45 142 -51 260 -129 131 -87 254 -212 279 -284 101 -288 -82 -1026 -404
-1630 -102 -190 -158 -281 -169 -270 -6 6 -2 29 12 62 81 198 102 374 67 568
-21 111 -21 320 -2 440 9 52 18 138 22 190 6 89 5 101 -25 195 -42 131 -134
308 -218 419 -131 175 -332 351 -489 429 -35 17 -63 34 -63 38 0 13 174 35
295 38 39 0 129 -6 200 -14z m-763 -79 c147 -41 294 -111 413 -196 104 -75
266 -244 338 -351 54 -81 157 -281 157 -305 0 -9 -12 -9 -42 -2 -55 12 -156 2
-236 -23 -62 -21 -162 -80 -195 -117 -10 -10 -31 -71 -47 -135 l-30 -116 30
-140 c20 -96 46 -179 81 -263 71 -170 291 -587 357 -677 51 -70 53 -75 36 -88
-10 -7 -22 -13 -27 -13 -22 0 -81 -58 -102 -101 -19 -36 -28 -80 -39 -186 -28
-259 -38 -338 -53 -408 -8 -38 -18 -101 -22 -140 -5 -38 -15 -97 -24 -130 -9
-33 -20 -94 -26 -135 -14 -103 -39 -217 -53 -243 -49 -94 -145 -194 -224 -235
-41 -21 -184 -51 -264 -55 -78 -5 -90 -3 -137 21 -64 33 -101 83 -136 182 -47
133 -57 219 -57 494 0 255 -8 343 -37 451 -10 37 -16 105 -17 180 -2 143 -19
189 -98 260 -51 45 -97 65 -155 65 -18 0 -33 1 -33 3 0 14 66 192 103 278 145
339 166 652 66 972 -40 126 -88 188 -185 237 -64 33 -73 35 -163 34 -110 -1
-208 -24 -331 -78 -48 -20 -80 -30 -80 -23 0 7 7 57 14 112 29 218 119 440
254 625 64 89 75 99 169 156 107 64 228 110 328 124 33 5 123 7 200 5 121 -4
157 -9 267 -39z m-1362 -1 c126 -19 335 -68 348 -80 2 -1 -30 -49 -69 -106
-154 -222 -256 -502 -279 -769 -8 -87 -10 -201 -5 -320 4 -127 2 -230 -7 -330
-7 -80 -13 -195 -12 -256 1 -175 45 -292 164 -440 l57 -70 -41 -46 c-23 -26
-99 -113 -170 -195 -228 -263 -268 -287 -367 -225 -113 72 -190 188 -318 479
-154 351 -338 1092 -369 1490 -21 261 63 513 231 696 60 66 66 69 209 127 134
54 155 59 235 63 203 7 245 5 393 -18z m2287 -1011 c3 -9 -3 -75 -13 -148 -23
-157 -25 -369 -5 -513 22 -158 3 -391 -36 -456 -7 -11 -179 313 -254 477 -35
78 -71 177 -90 252 l-32 123 18 96 c16 88 20 98 51 123 53 43 125 61 247 61
90 1 109 -2 114 -15z m-1640 -25 c60 -26 95 -79 126 -196 71 -267 53 -532 -55
-793 -61 -147 -106 -265 -118 -309 -13 -48 -28 -51 -125 -26 -123 32 -236 125
-298 244 -69 130 -81 223 -58 431 7 66 11 202 10 320 l-3 205 59 37 c136 86
364 129 462 87z m1727 -1513 c134 -53 281 -68 426 -42 41 8 76 12 78 11 2 -2
-25 -21 -60 -44 -147 -97 -458 -148 -598 -99 -32 10 -32 12 -27 57 8 69 25 98
71 121 23 11 43 20 45 20 3 0 32 -11 65 -24z m-1552 -23 c65 -70 65 -116 1
-185 -129 -137 -313 -199 -488 -163 -81 17 -125 33 -125 46 0 4 52 20 115 35
175 41 223 69 325 191 73 88 89 102 116 103 20 0 38 -9 56 -27z"/>
<path d="M3477 3299 c-90 -14 -120 -54 -74 -97 52 -49 115 -47 170 6 63 60 13
107 -96 91z"/>
<path d="M1920 3257 c-14 -7 -26 -23 -28 -35 -7 -46 69 -112 128 -112 36 0 85
28 103 59 16 27 16 30 -4 54 -33 43 -144 62 -199 34z"/>
</g>
</svg>
