<svg xmlns="http://www.w3.org/2000/svg" viewBox="0 0 128 128" fill="purple" class="bi bi-bootstrap-fill">
  <path d="M51.375 57.125V34.658h14.78c8.973 0 14.542 4.457 14.542 12.237 0 7.802-6.604 11.23-17.764 11.23zm0 30.762h15.898c11.184 0 18.81-4.48 18.81-12.377 0-8.885-6.65-13.348-18.886-13.348H51.375z"/>
  <path d="M32.002 0a32 32 0 0 0-32 32v64a32 32 0 0 0 32 32h64a32 32 0 0 0 32-32V32a32 32 0 0 0-32-32zm8.06 96V28.545h27.399c12.587 0 20.543 6.809 20.543 17.11 0 7.884-6.65 14.675-14.483 15.816v.1c11.143 1.117 19.904 9.931 19.904 20.033 0 14.488-10.084 23.396-22.888 23.396z"/>
</svg>