<svg viewBox="0 0 128 128" xmlns="http://www.w3.org/2000/svg" class="img-fluid">
    <g fill="#092E20">
        <path d="M64 0C28.7 0 0 28.7 0 64s28.7 64 64 64 64-28.7 64-64S99.3 0 64 0zm0 116.8c-29.2 0-52.8-23.6-52.8-52.8S34.8 11.2 64 11.2 116.8 34.8 116.8 64 93.2 116.8 64 116.8z"/>
        <path d="M64 0C28.7 0 0 28.7 0 64s28.7 64 64 64 64-28.7 64-64S99.3 0 64 0zm0 116.8c-29.2 0-52.8-23.6-52.8-52.8S34.8 11.2 64 11.2 116.8 34.8 116.8 64 93.2 116.8 64 116.8z"/>
    </g>
    <text x="50%" y="50%" text-anchor="middle" fill="#FFF" font-size="48" font-family="Arial" dy=".3em">Dj</text>
</svg>




