<?xml version="1.0" standalone="no"?>
<!DOCTYPE svg PUBLIC "-//W3C//DTD SVG 20010904//EN"
 "http://www.w3.org/TR/2001/REC-SVG-20010904/DTD/svg10.dtd">
<svg version="1.0" xmlns="http://www.w3.org/2000/svg"
 width="474.000000pt" height="496.000000pt" viewBox="0 0 474.000000 496.000000"
 preserveAspectRatio="xMidYMid meet">
<metadata>

</metadata>
<g transform="translate(0.000000,496.000000) scale(0.100000,-0.100000)"
fill="#99C8F6" stroke="none">
<path d="M2020 4951 c-14 -4 -88 -11 -165 -15 -649 -32 -1286 -198 -1615 -419
-77 -52 -173 -157 -208 -227 -45 -92 -44 -154 3 -247 58 -115 177 -221 344
-307 344 -177 827 -289 1453 -337 313 -23 941 -3 1248 42 263 37 685 133 673
152 -3 6 -2 7 4 4 16 -10 195 55 181 65 -8 6 -5 7 9 3 45 -13 385 177 368 205
-3 6 0 8 7 5 15 -5 63 36 97 83 l23 32 -22 36 c-26 40 -21 49 24 49 28 1 32
-2 27 -20 -5 -19 -5 -19 -9 -1 -3 15 -6 16 -13 5 -8 -12 -10 -12 -18 1 -6 8
-13 11 -16 8 -4 -4 0 -17 9 -30 9 -12 16 -17 16 -10 0 6 5 12 12 12 9 0 9 -3
0 -12 -17 -17 -15 -33 3 -18 20 17 44 104 43 160 0 34 -2 39 -7 20 -7 -24 -11
-25 -89 -28 l-82 -3 0 41 0 40 -40 0 -40 0 0 40 0 40 -40 0 -40 0 0 40 c0 40
0 40 -39 40 -39 0 -39 0 -42 44 -2 24 -1 42 4 39 4 -2 7 -1 7 4 0 12 -58 36
-72 30 -7 -3 -3 -6 9 -6 26 -1 38 -17 22 -27 -8 -4 -9 -3 -5 4 5 8 -1 12 -16
12 -18 0 -20 -2 -8 -10 13 -8 12 -10 -2 -10 -12 0 -18 8 -18 24 0 44 -10 56
-46 56 -32 0 -34 2 -34 36 0 23 6 42 18 50 21 16 46 18 37 3 -4 -6 0 -9 11 -7
12 2 20 -4 22 -17 6 -30 22 -43 22 -18 0 22 0 22 50 -5 57 -30 60 -40 5 -18
-44 19 -45 19 -45 6 0 -5 9 -10 21 -10 11 0 18 -4 15 -9 -3 -5 0 -9 7 -8 31 1
48 -4 43 -12 -3 -5 1 -11 9 -15 18 -7 20 5 3 22 -9 9 -9 12 0 12 7 0 15 -13
18 -30 6 -27 37 -50 51 -37 2 3 -5 8 -16 12 -12 3 -21 11 -21 16 0 16 43 0 63
-24 10 -11 30 -22 45 -23 22 -2 24 -1 9 7 -9 6 -23 7 -30 3 -9 -6 -9 -4 1 8 9
11 10 18 2 23 -5 3 -10 3 -10 0 0 -4 -21 9 -47 28 -27 19 -54 32 -62 29 -8 -3
-11 0 -7 7 7 11 -5 15 -33 12 -7 -2 -10 3 -6 9 3 6 3 10 -2 9 -4 -1 -35 10
-68 26 -95 43 -99 44 -114 27 -13 -13 -11 -14 15 -8 28 7 28 7 9 -8 -25 -19
-33 -20 -50 -2 -12 12 -11 15 8 20 15 4 19 8 11 16 -14 14 -141 61 -179 65
-16 3 -50 12 -75 21 -156 57 -588 129 -915 154 -77 5 -169 13 -205 16 -114 9
-484 13 -510 5z"/>
<path d="M0 3341 l0 -359 32 -62 c161 -315 772 -549 1653 -635 223 -22 689
-30 920 -16 427 25 849 96 1150 191 151 48 256 90 250 101 -4 5 0 6 8 3 36
-14 357 181 341 207 -3 5 -2 8 3 7 14 -5 65 51 58 62 -4 6 -1 9 6 8 6 -2 26
22 43 52 l31 55 5 373 c3 204 2 372 -1 372 -13 0 -49 -47 -42 -55 5 -4 2 -5
-4 -1 -7 4 -40 -11 -75 -35 -64 -42 -234 -131 -276 -144 -12 -3 -20 -11 -17
-16 3 -5 -1 -6 -10 -3 -8 4 -26 -1 -40 -10 -13 -9 -34 -16 -45 -16 -14 0 -19
-4 -14 -12 4 -7 3 -8 -5 -4 -6 4 -19 2 -28 -6 -9 -7 -18 -12 -20 -10 -11 8
-33 0 -27 -10 4 -7 3 -8 -4 -4 -6 4 -42 -3 -79 -14 -228 -72 -519 -132 -803
-164 -788 -91 -1644 -34 -2260 149 -299 90 -496 179 -671 307 -37 26 -70 48
-73 48 -3 0 -6 -162 -6 -359z"/>
<path d="M0 2219 l0 -364 30 -61 c92 -184 324 -334 712 -459 652 -210 1652
-264 2453 -132 l70 12 1 40 c1 22 7 66 13 98 10 54 9 62 -13 105 -13 26 -31
71 -40 101 -9 30 -39 88 -67 128 -28 41 -59 98 -70 128 -25 72 -25 167 1 224
l20 43 -48 -6 c-288 -35 -392 -40 -802 -41 -432 0 -505 4 -830 46 -418 53
-821 162 -1100 297 -89 43 -217 121 -307 188 l-23 16 0 -363z"/>
<path d="M4413 2511 c-161 -115 -424 -231 -694 -304 l-119 -33 43 -21 c23 -11
69 -26 101 -32 153 -28 425 -227 543 -398 20 -29 40 -53 45 -53 4 0 8 -7 8
-15 0 -8 6 -15 13 -15 20 0 70 57 62 69 -3 7 -1 10 6 9 7 -2 27 22 43 52 l31
55 5 373 c3 204 3 372 0 372 -3 0 -42 -27 -87 -59z"/>
<path d="M3327 1988 c-47 -37 -37 -92 34 -185 22 -28 53 -87 69 -130 44 -123
48 -132 80 -178 l30 -44 -21 -83 c-43 -164 2 -349 91 -380 43 -15 80 37 80
115 0 15 4 27 8 27 5 0 15 -12 23 -27 30 -61 69 -110 120 -152 30 -25 44 -34
32 -20 -33 37 -129 204 -149 260 -10 27 -21 49 -25 49 -20 0 -52 -68 -63 -129
-6 -37 -14 -69 -18 -70 -22 -4 -29 3 -49 47 -34 74 -38 202 -8 291 24 76 23
87 -21 141 -12 14 -38 74 -59 132 -22 59 -54 128 -73 153 -77 108 -86 138 -48
150 22 7 140 -43 173 -73 11 -9 45 -19 83 -23 134 -14 317 -135 430 -285 32
-44 77 -122 104 -183 63 -142 126 -265 144 -284 9 -8 46 -25 82 -37 61 -21
244 -133 244 -150 0 -4 -30 -10 -67 -13 -85 -7 -147 -28 -151 -52 -6 -27 96
-119 174 -156 37 -18 87 -48 111 -66 24 -18 46 -33 49 -33 18 0 -131 139 -188
176 -38 24 -68 50 -68 57 0 14 59 31 142 42 26 3 50 11 54 16 16 27 -145 156
-269 215 -74 35 -78 38 -111 103 -18 36 -55 116 -81 176 -26 61 -66 137 -88
170 -89 132 -281 293 -395 329 -26 8 -72 18 -102 22 -33 4 -67 16 -85 30 -74
56 -179 81 -218 52z"/>
<path d="M0 1080 c0 -203 3 -370 8 -370 4 0 16 -21 26 -47 26 -63 132 -173
231 -238 83 -56 207 -118 323 -161 l62 -24 0 263 0 262 28 60 c48 101 127 154
261 176 120 20 228 -18 323 -112 56 -56 57 -56 71 -35 8 12 31 38 51 58 20 20
36 39 36 42 0 3 -12 6 -28 6 -84 0 -498 88 -692 147 -229 69 -476 185 -615
287 -41 31 -77 56 -80 56 -3 0 -5 -166 -5 -370z"/>
<path d="M1919 885 c10 -11 24 -30 30 -42 12 -23 14 -23 231 -23 l218 0 31 39
c17 21 31 40 31 42 0 2 -126 4 -280 4 l-279 1 18 -21z"/>
<path d="M920 762 c-47 -24 -51 -48 -48 -336 l3 -241 60 0 60 0 5 247 5 247
59 -132 c122 -271 155 -335 177 -351 15 -10 44 -16 77 -16 72 0 94 23 162 175
29 66 70 156 90 200 21 44 40 90 44 103 5 13 10 21 12 19 3 -3 6 -114 7 -248
l2 -244 63 -3 62 -3 0 263 c0 192 -4 270 -13 288 -22 45 -129 65 -187 35 -20
-10 -39 -37 -64 -90 -20 -42 -36 -77 -36 -79 0 -2 -17 -42 -38 -88 -22 -45
-54 -116 -72 -155 -18 -40 -36 -73 -39 -73 -3 0 -37 73 -75 163 -112 264 -134
305 -166 322 -39 20 -107 19 -150 -3z"/>
<path d="M1870 434 l0 -156 33 -33 c46 -46 89 -55 280 -55 l167 0 0 -33 c0
-22 -8 -41 -21 -53 -19 -17 -41 -19 -230 -21 -114 -2 -213 -3 -219 -3 -5 0
-10 -18 -10 -40 l0 -40 240 0 c132 0 240 4 240 8 0 4 16 14 35 20 18 7 45 27
60 43 l25 31 0 244 0 244 -60 0 -60 0 0 -165 0 -165 -158 0 c-214 0 -202 -11
-202 181 l0 149 -60 0 -60 0 0 -156z"/>
</g>
</svg>
