<?xml version="1.0" standalone="no"?>
<!DOCTYPE svg PUBLIC "-//W3C//DTD SVG 20010904//EN"
 "http://www.w3.org/TR/2001/REC-SVG-20010904/DTD/svg10.dtd">
<svg version="1.0" xmlns="http://www.w3.org/2000/svg"
 width="474.000000pt" height="496.000000pt" viewBox="0 0 474.000000 496.000000"
 preserveAspectRatio="xMidYMid meet">
<metadata>

</metadata>
<g transform="translate(0.000000,496.000000) scale(0.100000,-0.100000)"
fill="#FA0B0B" stroke="none">
<path d="M1431 2545 c-183 -40 -305 -107 -437 -239 -141 -141 -220 -293 -264
-507 -30 -146 -25 -379 13 -520 95 -361 358 -620 695 -685 116 -22 1671 -21
1780 2 163 33 301 105 420 218 129 122 217 274 269 462 24 90 27 115 27 284 1
147 -3 201 -18 264 -89 382 -347 648 -698 720 -67 14 -185 16 -900 15 -662 0
-836 -3 -887 -14z m1725 -316 c159 -29 308 -146 382 -300 64 -132 76 -192 76
-359 0 -167 -12 -227 -76 -359 -73 -153 -224 -272 -382 -300 -83 -15 -1595
-15 -1668 0 -202 42 -363 205 -430 434 -19 68 -23 103 -23 230 0 129 3 160 23
225 70 224 214 372 412 424 46 12 189 15 841 15 520 1 805 -3 845 -10z"/>
<path d="M777 449 c-60 -31 -91 -89 -95 -174 -4 -81 13 -129 65 -176 46 -43
82 -49 277 -49 202 0 238 9 289 69 78 93 56 259 -45 324 l-42 27 -206 0 c-185
-1 -209 -3 -243 -21z m454 -62 c19 -12 40 -35 47 -51 18 -37 17 -118 -3 -155
-28 -55 -53 -61 -264 -61 -186 0 -190 0 -218 24 -29 25 -53 82 -53 127 0 12 9
42 20 65 33 67 56 74 261 74 167 0 178 -1 210 -23z"/>
<path d="M1410 260 l0 -210 35 0 35 0 0 180 0 180 138 0 c75 0 147 -3 159 -6
26 -7 43 -51 32 -81 -10 -28 -30 -32 -157 -36 l-104 -2 119 -117 118 -118 50
0 50 0 -90 85 c-90 84 -90 84 -57 85 109 1 178 110 123 194 -35 52 -50 55
-258 56 l-193 0 0 -210z"/>
<path d="M2174 462 c-5 -4 -51 -72 -101 -152 -49 -80 -107 -171 -127 -202
l-37 -58 41 0 c39 0 42 3 78 60 l37 60 83 0 c82 0 82 0 102 33 l20 32 -75 3
c-41 2 -75 5 -75 8 0 9 75 134 80 134 3 0 25 -33 50 -72 24 -40 71 -115 104
-165 59 -91 60 -93 99 -93 38 0 39 1 25 23 -8 12 -68 106 -133 210 -119 188
-135 204 -171 179z"/>
<path d="M2575 456 c-98 -44 -143 -176 -96 -281 49 -110 84 -124 296 -125
l161 0 17 29 c9 16 17 32 17 35 0 3 -81 6 -180 6 l-180 0 -37 34 c-33 30 -37
39 -40 92 -5 72 18 121 68 146 28 15 61 18 191 18 l157 0 16 30 16 30 -188 0
c-135 -1 -196 -5 -218 -14z"/>
<path d="M3040 260 l0 -210 164 0 c163 0 164 0 180 25 9 13 16 29 16 35 0 6
-52 10 -145 10 l-145 0 0 175 0 175 -35 0 -35 0 0 -210z"/>
<path d="M3520 451 c-58 -30 -93 -91 -98 -165 -2 -36 1 -81 8 -101 17 -52 75
-113 118 -125 21 -5 105 -10 189 -10 l152 0 20 29 c12 16 21 32 21 35 0 3 -79
6 -175 6 -195 0 -222 7 -250 60 -8 16 -15 34 -15 40 0 6 62 10 183 10 l183 0
17 29 c9 16 17 32 17 35 0 3 -90 6 -201 6 l-200 0 7 23 c3 12 14 30 23 41 35
40 64 46 225 46 l155 0 21 30 21 30 -193 0 c-169 0 -198 -2 -228 -19z"/>
</g>
</svg>
