<?xml version="1.0" standalone="no"?>
<!DOCTYPE svg PUBLIC "-//W3C//DTD SVG 20010904//EN"
 "http://www.w3.org/TR/2001/REC-SVG-20010904/DTD/svg10.dtd">
<svg version="1.0" xmlns="http://www.w3.org/2000/svg"
 width="1024.000000pt" height="1024.000000pt" viewBox="0 0 1024.000000 1024.000000"
 preserveAspectRatio="xMidYMid meet">
<metadata>

</metadata>
<g transform="translate(0.000000,1024.000000) scale(0.100000,-0.100000)"
fill="#0BFA5B" stroke="none">
<path d="M4470 9095 c-746 -64 -1074 -219 -1162 -549 -30 -112 -39 -268 -36
-606 l3 -315 793 -3 793 -2 -3 -103 -3 -102 -1180 -5 c-1177 -5 -1180 -5
-1257 -27 -235 -67 -412 -184 -540 -356 -122 -165 -187 -349 -258 -724 -75
-402 -54 -812 66 -1298 76 -306 192 -507 379 -657 49 -39 98 -66 171 -94 126
-47 191 -54 525 -54 l309 0 0 409 c0 454 4 492 63 649 87 233 273 435 502 547
215 105 133 98 1210 105 715 5 950 9 980 19 165 52 258 104 363 205 103 98
171 210 211 344 39 130 44 268 38 1082 -5 721 -7 769 -25 840 -27 100 -54 162
-108 241 -117 174 -331 320 -557 380 -75 20 -297 54 -457 69 -180 18 -637 20
-820 5z m-384 -496 c58 -28 122 -91 147 -147 30 -66 30 -188 0 -253 -27 -60
-92 -125 -152 -152 -64 -30 -178 -30 -241 0 -58 27 -122 91 -151 151 -32 67
-33 178 -1 247 39 84 120 153 207 176 46 12 144 1 191 -22z"/>
<path d="M4940 1710 l0 -390 120 0 120 0 0 199 0 199 40 16 c47 19 118 21 153
5 41 -19 47 -48 47 -239 l0 -180 120 0 120 0 0 198 c0 108 -5 214 -10 234 -39
139 -224 184 -406 99 l-64 -30 0 140 0 139 -120 0 -120 0 0 -390z"/>
<path d="M2000 1691 l0 -371 125 0 125 0 0 120 0 120 98 0 c264 1 422 100 422
265 0 102 -55 169 -172 208 -56 18 -92 21 -330 25 l-268 4 0 -371z m432 219
c75 -21 101 -101 52 -159 -31 -37 -77 -51 -166 -51 l-68 0 0 110 0 110 73 0
c39 0 89 -5 109 -10z"/>
<path d="M4160 1960 l0 -80 -45 0 -45 0 0 -59 0 -60 43 -3 42 -3 5 -170 c5
-178 10 -197 57 -230 55 -39 223 -57 357 -39 l46 7 0 64 c0 58 -2 64 -17 58
-10 -3 -48 -9 -85 -12 -65 -6 -68 -5 -98 25 l-31 31 3 133 3 133 113 3 112 3
0 59 0 60 -115 0 -115 0 0 80 0 80 -115 0 -115 0 0 -80z"/>
<path d="M6310 1890 c-205 -25 -323 -147 -307 -320 14 -155 141 -253 348 -267
251 -17 420 86 436 267 10 112 -39 211 -131 265 -83 48 -221 70 -346 55z m167
-140 c48 -29 65 -71 65 -156 0 -120 -40 -164 -148 -164 -104 0 -144 47 -144
170 0 117 45 170 145 170 32 0 62 -7 82 -20z"/>
<path d="M7548 1890 c-39 -7 -92 -28 -170 -68 -5 -2 -8 10 -8 27 l0 31 -115 0
-115 0 0 -280 0 -280 115 0 115 0 0 198 0 199 28 13 c15 7 56 15 92 17 115 9
129 -19 130 -274 l0 -153 115 0 115 0 0 213 c0 235 -9 274 -66 314 -55 39
-155 57 -236 43z"/>
<path d="M3030 1874 c0 -4 62 -127 138 -275 l137 -269 -52 -100 c-29 -55 -53
-104 -53 -110 0 -7 41 -10 123 -8 l122 3 188 370 c104 204 191 376 194 383 4
10 -21 12 -117 10 l-123 -3 -72 -167 c-39 -92 -73 -170 -76 -173 -3 -3 -41 74
-85 170 l-79 175 -122 0 c-68 0 -123 -3 -123 -6z"/>
</g>
</svg>
