<?xml version="1.0" standalone="no"?>
<!DOCTYPE svg PUBLIC "-//W3C//DTD SVG 20010904//EN"
 "http://www.w3.org/TR/2001/REC-SVG-20010904/DTD/svg10.dtd">
<svg version="1.0" xmlns="http://www.w3.org/2000/svg"
 width="474.000000pt" height="496.000000pt" viewBox="0 0 474.000000 496.000000"
 preserveAspectRatio="xMidYMid meet">
<metadata>
Created by potrace 1.16, written by Peter Selinger 2001-2019
</metadata>
<g transform="translate(0.000000,496.000000) scale(0.100000,-0.100000)"
fill="#64E8DB" stroke="none">
<path d="M1810 2513 c-8 -3 -31 -16 -50 -29 l-36 -24 -479 -2 c-525 -3 -508
-1 -540 -63 -14 -27 -16 -91 -13 -573 l3 -544 33 -29 32 -29 323 0 323 0 11
-71 c7 -39 16 -76 22 -82 6 -6 6 4 -2 29 -17 57 -14 292 6 399 62 335 209 654
391 850 l55 60 -65 -99 c-72 -108 -176 -310 -230 -445 -42 -102 -109 -318
-119 -381 l-7 -45 28 39 c16 21 56 58 89 81 39 27 80 69 117 121 32 43 58 82
58 85 0 6 -136 -27 -152 -37 -4 -3 -8 -2 -8 1 0 6 141 74 182 88 36 13 164
257 197 377 40 144 19 267 -53 311 -29 18 -83 24 -116 12z m-169 -147 c-91
-119 -169 -278 -222 -449 -11 -38 -18 -76 -15 -84 4 -9 0 -21 -8 -27 -24 -20
-35 -70 -20 -91 8 -10 14 -24 14 -29 0 -6 -5 -3 -11 7 -11 19 -59 23 -59 5 0
-7 -5 -5 -11 5 -14 24 -28 21 -23 -5 2 -13 2 -17 -2 -10 -4 9 -63 12 -245 12
-178 0 -239 3 -239 12 0 6 -6 4 -13 -6 -9 -13 -20 -16 -40 -11 l-27 7 -1 247
c-1 135 -2 287 -3 338 -1 84 1 94 23 117 l24 26 464 0 464 0 -50 -64z"/>
<path d="M1915 1777 c-71 -29 -95 -62 -95 -133 0 -65 26 -105 100 -156 111
-76 121 -84 135 -110 24 -44 19 -95 -11 -123 -70 -65 -214 -8 -214 85 0 11 -4
20 -10 20 -6 0 -10 -30 -10 -70 0 -70 3 -77 29 -61 9 6 29 4 54 -5 124 -44
237 20 237 134 0 74 -34 118 -145 187 -78 48 -113 82 -120 115 -17 79 75 137
153 96 35 -18 57 -43 70 -81 9 -27 11 -22 11 39 1 58 -1 67 -13 57 -10 -9 -20
-9 -33 -3 -31 17 -106 22 -138 9z"/>
<path d="M2428 1776 c-190 -53 -273 -272 -165 -433 39 -58 104 -109 157 -123
29 -8 54 -27 92 -71 69 -78 139 -114 225 -114 34 0 67 5 74 12 9 9 0 11 -36
11 -57 0 -95 25 -161 103 l-46 53 44 13 c61 17 131 82 165 150 67 138 7 311
-130 377 -64 31 -155 40 -219 22z m195 -43 c22 -16 51 -50 66 -78 23 -45 26
-61 26 -160 0 -94 -3 -116 -22 -150 -44 -82 -98 -115 -189 -115 -62 0 -85 9
-132 53 -67 64 -94 229 -56 342 19 55 77 116 126 133 54 18 136 7 181 -25z"/>
<path d="M2850 1780 c0 -5 8 -10 18 -10 40 0 42 -15 42 -264 0 -133 -4 -246
-8 -252 -4 -6 -16 -16 -27 -22 -15 -9 21 -11 163 -12 l182 0 0 24 c0 13 3 31
6 40 3 9 1 16 -4 16 -6 0 -13 -8 -17 -18 -8 -29 -49 -42 -125 -42 -104 0 -100
-11 -100 265 0 199 2 236 16 249 8 9 20 16 25 16 5 0 9 5 9 10 0 6 -37 10 -90
10 -53 0 -90 -4 -90 -10z"/>
<path d="M3572 1587 c-13 -22 -35 -44 -52 -50 -38 -15 -38 -27 0 -27 l30 0 0
-133 c0 -117 2 -136 18 -150 27 -25 62 -21 114 12 51 32 67 51 44 51 -8 0 -18
-5 -21 -10 -14 -23 -65 -41 -85 -30 -18 10 -20 21 -20 135 l0 125 45 0 c33 0
45 4 45 15 0 11 -12 15 -44 15 l-45 0 -3 43 -3 42 -23 -38z"/>
<path d="M3342 1534 c-63 -14 -77 -24 -35 -24 19 0 33 -6 37 -16 3 -9 6 -67 6
-129 l0 -114 -27 -15 c-27 -14 -23 -15 62 -15 62 -1 85 2 75 9 -8 5 -23 10
-32 10 -10 0 -19 1 -20 3 0 1 -4 70 -7 152 l-6 151 -53 -12z"/>
<path d="M3880 1534 c-106 -45 -136 -223 -51 -298 27 -24 116 -32 151 -14 25
14 74 77 65 86 -2 2 -18 -7 -35 -21 -62 -52 -143 -41 -170 22 -17 43 -10 54
46 69 53 14 105 49 130 87 20 31 6 59 -37 74 -41 14 -56 13 -99 -5z"/>
</g>
</svg>